<svg width="16" height="16" viewBox="0 0 16 16" fill="none" xmlns="http://www.w3.org/2000/svg">
<path d="M8.66683 3.33325C8.66683 2.96506 8.36835 2.66659 8.00016 2.66659C7.63197 2.66659 7.3335 2.96506 7.3335 3.33325H8.66683ZM8.00016 12.6666L7.52876 13.138C7.78911 13.3983 8.21122 13.3983 8.47157 13.138L8.00016 12.6666ZM13.1382 8.47132C13.3986 8.21097 13.3986 7.78886 13.1382 7.52851C12.8779 7.26816 12.4558 7.26816 12.1954 7.52851L13.1382 8.47132ZM3.8049 7.52851C3.54455 7.26816 3.12244 7.26816 2.86209 7.52851C2.60174 7.78886 2.60174 8.21097 2.86209 8.47132L3.8049 7.52851ZM7.3335 3.33325V12.6666H8.66683V3.33325H7.3335ZM12.1954 7.52851L7.52876 12.1952L8.47157 13.138L13.1382 8.47132L12.1954 7.52851ZM8.47157 12.1952L3.8049 7.52851L2.86209 8.47132L7.52876 13.138L8.47157 12.1952Z" fill="#667085"/>
</svg>
