<svg width="23" height="24" viewBox="0 0 23 24" fill="none" xmlns="http://www.w3.org/2000/svg">
<path d="M15.3333 3.375V7.20833M7.66659 3.375V7.20833M3.83325 11.0417H19.1666M10.5416 14.875H11.4999V17.75M3.83325 7.20833C3.83325 6.7 4.03519 6.21249 4.39463 5.85305C4.75408 5.4936 5.24159 5.29167 5.74992 5.29167H17.2499C17.7582 5.29167 18.2458 5.4936 18.6052 5.85305C18.9647 6.21249 19.1666 6.7 19.1666 7.20833V18.7083C19.1666 19.2167 18.9647 19.7042 18.6052 20.0636C18.2458 20.4231 17.7582 20.625 17.2499 20.625H5.74992C5.24159 20.625 4.75408 20.4231 4.39463 20.0636C4.03519 19.7042 3.83325 19.2167 3.83325 18.7083V7.20833Z" stroke="url(#paint0_linear_71_6932)" stroke-width="1.91667" stroke-linecap="round" stroke-linejoin="round"/>
<defs>
<linearGradient id="paint0_linear_71_6932" x1="11.4999" y1="3.375" x2="11.4999" y2="20.625" gradientUnits="userSpaceOnUse">
<stop stop-color="#8669FF"/>
<stop offset="1" stop-color="#16ABFD"/>
</linearGradient>
</defs>
</svg>
