<svg width="32" height="33" viewBox="0 0 32 33" fill="none" xmlns="http://www.w3.org/2000/svg">
<rect y="0.185791" width="32" height="32" rx="5.33333" fill="#3575FF" fill-opacity="0.2"/>
<g clip-path="url(#clip0_70_6697)">
<path d="M17.0573 9.51904C17.4109 9.51912 17.75 9.65964 18 9.90971L20.9426 12.8524C21.1927 13.1024 21.3332 13.4414 21.3333 13.795V21.519C21.3333 21.8727 21.1928 22.2118 20.9428 22.4619C20.6927 22.7119 20.3536 22.8524 20 22.8524H12C11.6463 22.8524 11.3072 22.7119 11.0572 22.4619C10.8071 22.2118 10.6666 21.8727 10.6666 21.519V10.8524C10.6666 10.4988 10.8071 10.1596 11.0572 9.90957C11.3072 9.65952 11.6463 9.51904 12 9.51904H17.0573ZM16 10.8524H12V21.519H20V14.8524H17C16.7514 14.8524 16.5117 14.7598 16.3277 14.5926C16.1437 14.4255 16.0285 14.1958 16.0046 13.9484L16 13.8524V10.8524ZM17.376 16.6184C17.436 16.4597 17.5543 16.3299 17.7068 16.2554C17.8593 16.1809 18.0344 16.1673 18.1965 16.2175C18.3586 16.2676 18.4955 16.3777 18.5792 16.5253C18.663 16.6729 18.6873 16.8468 18.6473 17.0117L18.624 17.0864L17.6866 19.5864C17.4593 20.193 16.628 20.2197 16.348 19.6664L16.3133 19.5864L16 18.751L15.6866 19.5864C15.4593 20.193 14.628 20.2197 14.348 19.6664L14.3133 19.5864L13.376 17.0864C13.3168 16.9273 13.3205 16.7516 13.3864 16.5951C13.4523 16.4386 13.5754 16.3132 13.7306 16.2444C13.8858 16.1756 14.0614 16.1686 14.2216 16.2249C14.3818 16.2811 14.5145 16.3963 14.5926 16.547L14.624 16.6184L15 17.6204L15.3133 16.785C15.5406 16.1784 16.372 16.1517 16.652 16.705L16.6866 16.785L17 17.6204L17.376 16.6184ZM17.3333 11.1284V13.519H19.724L17.3333 11.1284Z" fill="#3575FF"/>
</g>
<defs>
<clipPath id="clip0_70_6697">
<rect width="16" height="16" fill="white" transform="translate(8 8.18579)"/>
</clipPath>
</defs>
</svg>
