<svg width="17" height="17" viewBox="0 0 17 17" fill="none" xmlns="http://www.w3.org/2000/svg">
<path d="M13.5689 6.04774L8.88395 10.6587C8.78173 10.7599 8.64374 10.8166 8.49995 10.8166C8.35616 10.8166 8.21817 10.7599 8.11595 10.6587L3.43095 6.04873C3.32809 5.94766 3.18965 5.89102 3.04545 5.89102C2.90124 5.89102 2.7628 5.94766 2.65995 6.04873C2.6093 6.09811 2.56905 6.15713 2.54156 6.2223C2.51408 6.28748 2.49992 6.3575 2.49992 6.42823C2.49992 6.49897 2.51408 6.56899 2.54156 6.63416C2.56905 6.69934 2.6093 6.75836 2.65995 6.80773L7.34395 11.4177C7.65247 11.7207 8.06757 11.8904 8.49995 11.8904C8.93232 11.8904 9.34743 11.7207 9.65595 11.4177L14.3399 6.80774C14.3907 6.75834 14.4311 6.69927 14.4587 6.634C14.4863 6.56873 14.5005 6.49859 14.5005 6.42774C14.5005 6.35688 14.4863 6.28675 14.4587 6.22148C14.4311 6.15621 14.3907 6.09713 14.3399 6.04774C14.2371 5.94666 14.0987 5.89002 13.9544 5.89002C13.8102 5.89002 13.6718 5.94666 13.5689 6.04774Z" fill="#202020"/>
</svg>
