<svg width="24" height="24" viewBox="0 0 24 24" fill="none" xmlns="http://www.w3.org/2000/svg">
<path d="M16.0868 19.4724L9.45848 12.7377C9.31311 12.5908 9.23157 12.3924 9.23157 12.1857C9.23157 11.979 9.31311 11.7807 9.45848 11.6337L16.0854 4.89906C16.2307 4.7512 16.3121 4.5522 16.3121 4.3449C16.3121 4.13761 16.2307 3.9386 16.0854 3.79075C16.0144 3.71794 15.9295 3.66008 15.8358 3.62057C15.7422 3.58106 15.6415 3.56071 15.5398 3.56071C15.4381 3.56071 15.3375 3.58106 15.2438 3.62057C15.1501 3.66008 15.0653 3.71794 14.9943 3.79075L8.36742 10.524C7.93196 10.9675 7.68799 11.5642 7.68799 12.1857C7.68799 12.8073 7.93196 13.404 8.36742 13.8475L14.9943 20.5807C15.0653 20.6538 15.1502 20.7118 15.244 20.7515C15.3379 20.7911 15.4387 20.8115 15.5405 20.8115C15.6424 20.8115 15.7432 20.7911 15.837 20.7515C15.9309 20.7118 16.0158 20.6538 16.0868 20.5807C16.2321 20.4329 16.3135 20.2339 16.3135 20.0266C16.3135 19.8193 16.2321 19.6203 16.0868 19.4724Z" fill="#202020"/>
</svg>
