<svg width="51" height="34" viewBox="0 0 51 34" fill="none" xmlns="http://www.w3.org/2000/svg">
<path fill-rule="evenodd" clip-rule="evenodd" d="M15.8074 17.1662C15.8943 17.3755 16.0655 17.5368 16.2762 17.6085L24.8687 20.5275C24.9763 20.564 25.0888 20.5754 25.1983 20.5623C25.3025 20.5499 25.4039 20.5155 25.4956 20.4598L32.9565 15.9318C33.1561 15.8106 33.2891 15.602 33.3175 15.3655C33.3459 15.1291 33.2665 14.891 33.102 14.7195L22.9306 4.11494C22.7569 3.93391 22.5097 3.8486 22.266 3.88654C22.0228 3.92435 21.814 4.08038 21.7057 4.30526L15.8238 16.5188C15.7265 16.7207 15.7206 16.957 15.8074 17.1662Z" fill="#FFCC02"/>
<path fill-rule="evenodd" clip-rule="evenodd" d="M25.6775 22.8197C25.6379 22.5263 25.4395 22.279 25.1653 22.1813L2.51146 14.1084C2.19728 13.9964 1.85082 14.1041 1.65458 14.3747C1.45849 14.6453 1.45769 15.0168 1.65267 15.2934L12.8596 31.1947C13.0291 31.435 13.3064 31.5504 13.5744 31.5185C13.6895 31.5048 13.8029 31.4638 13.9052 31.3939L25.352 23.5654C25.5911 23.402 25.7171 23.1131 25.6775 22.8197Z" fill="#EFAE07"/>
<path fill-rule="evenodd" clip-rule="evenodd" d="M47.1153 8.75627C46.8586 8.53646 46.4945 8.51025 46.2156 8.69151L13.2675 30.0972C12.9692 30.291 12.8441 30.6707 12.9658 31.0137C13.0874 31.3567 13.4234 31.5699 13.7761 31.5297L39.3921 28.6019L39.3958 28.6015C39.6688 28.5689 39.902 28.3907 40.0051 28.1308L47.3372 9.65245C47.4617 9.33874 47.3719 8.97603 47.1153 8.75627Z" fill="#FFCC02"/>
</svg>
