<svg width="32" height="33" viewBox="0 0 32 33" fill="none" xmlns="http://www.w3.org/2000/svg">
<rect y="0.5" width="32" height="32" rx="5.33333" fill="#DDD0FD"/>
<path d="M16.0134 10.4399C13.8067 10.4399 12.0134 12.2333 12.0134 14.4399V16.3666C12.0134 16.7733 11.8401 17.3933 11.6334 17.7399L10.8667 19.0133C10.3934 19.7999 10.7201 20.6733 11.5867 20.9666C14.4601 21.9266 17.5601 21.9266 20.4334 20.9666C21.2401 20.6999 21.5934 19.7466 21.1534 19.0133L20.3867 17.7399C20.1867 17.3933 20.0134 16.7733 20.0134 16.3666V14.4399C20.0134 12.2399 18.2134 10.4399 16.0134 10.4399Z" stroke="#702DFF" stroke-width="1.5" stroke-miterlimit="10" stroke-linecap="round"/>
<path d="M17.2467 10.6332C17.04 10.5732 16.8267 10.5265 16.6067 10.4999C15.9667 10.4199 15.3534 10.4665 14.78 10.6332C14.9734 10.1399 15.4534 9.79321 16.0134 9.79321C16.5734 9.79321 17.0534 10.1399 17.2467 10.6332Z" stroke="#702DFF" stroke-width="1.5" stroke-miterlimit="10" stroke-linecap="round" stroke-linejoin="round"/>
<path d="M18.0134 21.2068C18.0134 22.3068 17.1134 23.2068 16.0134 23.2068C15.4668 23.2068 14.9601 22.9801 14.6001 22.6201C14.2401 22.2601 14.0134 21.7535 14.0134 21.2068" stroke="#702DFF" stroke-width="1.5" stroke-miterlimit="10"/>
</svg>
