<svg width="19" height="18" viewBox="0 0 19 18" fill="none" xmlns="http://www.w3.org/2000/svg">
<path d="M2.3042 13.5H1.5542H2.3042ZM2.3042 4.5L3.0542 4.5L2.3042 4.5ZM5.3042 1.5V0.75V1.5ZM12.8042 1.5V0.75V1.5ZM15.8042 4.5L15.0542 4.5V4.5H15.8042ZM15.8042 9.25736L16.5542 9.25736V9.25736H15.8042ZM8.56156 16.5V15.75V16.5ZM5.3042 16.5V17.25V16.5ZM14.9255 11.3787L14.3952 10.8483V10.8484L14.9255 11.3787ZM10.6829 15.6213L11.2132 16.1517L10.6829 15.6213ZM9.8042 13.5H9.0542H9.8042ZM12.8042 10.5V9.75V10.5ZM6.0542 4.5C5.63999 4.5 5.3042 4.83579 5.3042 5.25C5.3042 5.66421 5.63999 6 6.0542 6V4.5ZM12.0542 6C12.4684 6 12.8042 5.66421 12.8042 5.25C12.8042 4.83579 12.4684 4.5 12.0542 4.5V6ZM6.0542 8.25C5.63999 8.25 5.3042 8.58579 5.3042 9C5.3042 9.41421 5.63999 9.75 6.0542 9.75V8.25ZM9.0542 9.75C9.46841 9.75 9.8042 9.41421 9.8042 9C9.8042 8.58579 9.46841 8.25 9.0542 8.25V9.75ZM3.0542 13.5L3.0542 4.5L1.5542 4.5L1.5542 13.5H3.0542ZM5.3042 2.25L12.8042 2.25V0.75L5.3042 0.75L5.3042 2.25ZM15.0542 4.5V9.25736H16.5542V4.5H15.0542ZM8.56156 15.75H5.3042V17.25H8.56156V15.75ZM14.3952 10.8484L10.1525 15.091L11.2132 16.1517L15.4558 11.909L14.3952 10.8484ZM8.56156 17.25C9.55612 17.25 10.5099 16.8549 11.2132 16.1517L10.1525 15.091C9.73059 15.5129 9.1583 15.75 8.56156 15.75V17.25ZM15.0542 9.25736C15.0542 9.8541 14.8171 10.4264 14.3952 10.8483L15.4558 11.909C16.1591 11.2057 16.5542 10.2519 16.5542 9.25736L15.0542 9.25736ZM3.0542 4.5C3.0542 3.25736 4.06156 2.25 5.3042 2.25L5.3042 0.75C3.23313 0.75 1.5542 2.42893 1.5542 4.5L3.0542 4.5ZM1.5542 13.5C1.5542 15.5711 3.23313 17.25 5.3042 17.25V15.75C4.06156 15.75 3.0542 14.7426 3.0542 13.5H1.5542ZM12.8042 2.25C14.0468 2.25 15.0542 3.25736 15.0542 4.5L16.5542 4.5C16.5542 2.42893 14.8753 0.75 12.8042 0.75V2.25ZM10.5542 16.5V13.5H9.0542V16.5H10.5542ZM12.8042 11.25L15.8042 11.25V9.75L12.8042 9.75V11.25ZM10.5542 13.5C10.5542 12.2574 11.5616 11.25 12.8042 11.25V9.75C10.7331 9.75 9.0542 11.4289 9.0542 13.5H10.5542ZM6.0542 6H12.0542V4.5H6.0542V6ZM6.0542 9.75H9.0542V8.25H6.0542V9.75Z" fill="#202020"/>
</svg>
