<svg width="24" height="25" viewBox="0 0 24 25" fill="none" xmlns="http://www.w3.org/2000/svg">
<path d="M12 8.18583C11.11 8.18583 10.24 8.44976 9.49998 8.94422C8.75996 9.43869 8.18318 10.1415 7.84259 10.9638C7.50199 11.786 7.41288 12.6908 7.58651 13.5637C7.76014 14.4367 8.18873 15.2385 8.81806 15.8678C9.4474 16.4972 10.2492 16.9257 11.1221 17.0994C11.9951 17.273 12.8999 17.1839 13.7221 16.8433C14.5444 16.5027 15.2472 15.9259 15.7417 15.1859C16.2361 14.4459 16.5 13.5759 16.5 12.6858C16.4988 11.4927 16.0243 10.3489 15.1807 9.50522C14.337 8.66158 13.1931 8.18708 12 8.18583ZM12 15.6858C11.4067 15.6858 10.8267 15.5099 10.3333 15.1802C9.83999 14.8506 9.45547 14.3821 9.2284 13.8339C9.00134 13.2857 8.94193 12.6825 9.05769 12.1006C9.17344 11.5186 9.45917 10.9841 9.87872 10.5645C10.2983 10.145 10.8328 9.85923 11.4148 9.74348C11.9967 9.62772 12.5999 9.68713 13.1481 9.9142C13.6963 10.1413 14.1648 10.5258 14.4945 11.0191C14.8241 11.5125 15 12.0925 15 12.6858C15 13.4815 14.684 14.2445 14.1214 14.8072C13.5588 15.3698 12.7957 15.6858 12 15.6858ZM20.25 12.8883C20.2538 12.7533 20.2538 12.6183 20.25 12.4833L21.6488 10.7358C21.7221 10.6441 21.7729 10.5364 21.797 10.4214C21.8211 10.3065 21.8179 10.1874 21.7875 10.074C21.5582 9.21202 21.2152 8.38444 20.7675 7.61302C20.7089 7.51207 20.6276 7.42619 20.5299 7.36223C20.4322 7.29827 20.321 7.25798 20.205 7.24458L17.9813 6.99708C17.8888 6.89958 17.795 6.80583 17.7 6.71583L17.4375 4.48646C17.424 4.37041 17.3836 4.25912 17.3195 4.16146C17.2554 4.0638 17.1693 3.98247 17.0682 3.92396C16.2965 3.4771 15.4689 3.13443 14.6072 2.9049C14.4937 2.87471 14.3746 2.87162 14.2597 2.89588C14.1447 2.92015 14.037 2.97108 13.9454 3.04458L12.2025 4.43583H11.7975L10.05 3.0399C9.95829 2.96655 9.8506 2.91579 9.73563 2.89169C9.62067 2.86759 9.50165 2.87083 9.38817 2.90115C8.52637 3.13086 7.69884 3.47385 6.92723 3.92115C6.82628 3.97976 6.7404 4.06114 6.67644 4.15879C6.61248 4.25645 6.57219 4.36768 6.55879 4.48365L6.31129 6.71115C6.21379 6.80427 6.12004 6.89802 6.03004 6.9924L3.80067 7.24833C3.68462 7.26184 3.57333 7.30226 3.47567 7.36639C3.37801 7.43052 3.29668 7.51658 3.23817 7.61771C2.79131 8.38943 2.44864 9.21694 2.21911 10.0786C2.18891 10.1922 2.18583 10.3113 2.21009 10.4262C2.23435 10.5412 2.28529 10.6489 2.35879 10.7405L3.75004 12.4833V12.8883L2.35411 14.6358C2.28076 14.7276 2.23 14.8353 2.2059 14.9502C2.1818 15.0652 2.18504 15.1842 2.21536 15.2977C2.44466 16.1596 2.78767 16.9872 3.23536 17.7586C3.29397 17.8596 3.37535 17.9455 3.473 18.0094C3.57065 18.0734 3.68189 18.1137 3.79786 18.1271L6.02161 18.3746C6.11473 18.4721 6.20848 18.5658 6.30286 18.6558L6.56254 20.8852C6.57605 21.0013 6.61647 21.1126 6.6806 21.2102C6.74473 21.3079 6.83079 21.3892 6.93192 21.4477C7.70363 21.8946 8.53114 22.2372 9.39286 22.4668C9.50641 22.497 9.62547 22.5001 9.74044 22.4758C9.8554 22.4515 9.96306 22.4006 10.0547 22.3271L11.7975 20.9358C11.9325 20.9396 12.0675 20.9396 12.2025 20.9358L13.95 22.3346C14.0418 22.4079 14.1495 22.4587 14.2645 22.4828C14.3794 22.5069 14.4984 22.5037 14.6119 22.4733C15.4739 22.244 16.3014 21.901 17.0729 21.4533C17.1738 21.3947 17.2597 21.3133 17.3236 21.2157C17.3876 21.118 17.4279 21.0068 17.4413 20.8908L17.6888 18.6671C17.7863 18.5746 17.88 18.4808 17.97 18.3858L20.1994 18.1233C20.3155 18.1098 20.4268 18.0694 20.5244 18.0053C20.6221 17.9411 20.7034 17.8551 20.7619 17.754C21.2088 16.9822 21.5515 16.1547 21.781 15.293C21.8112 15.1795 21.8143 15.0604 21.79 14.9454C21.7657 14.8305 21.7148 14.7228 21.6413 14.6311L20.25 12.8883ZM18.7407 12.279C18.7566 12.55 18.7566 12.8217 18.7407 13.0927C18.7295 13.2783 18.7876 13.4613 18.9038 13.6065L20.2341 15.2686C20.0815 15.7538 19.886 16.2244 19.65 16.6749L17.5313 16.9149C17.3468 16.9354 17.1764 17.0236 17.0532 17.1624C16.8727 17.3654 16.6805 17.5576 16.4775 17.738C16.3387 17.8613 16.2505 18.0316 16.23 18.2161L15.9947 20.333C15.5443 20.5691 15.0736 20.7646 14.5885 20.9171L12.9254 19.5868C12.7923 19.4804 12.627 19.4226 12.4566 19.4227H12.4116C12.1406 19.4386 11.8689 19.4386 11.5979 19.4227C11.4123 19.4115 11.2292 19.4697 11.0841 19.5858L9.41723 20.9171C8.93211 20.7644 8.4615 20.569 8.01098 20.333L7.77098 18.2171C7.7505 18.0326 7.66231 17.8622 7.52348 17.739C7.32052 17.5585 7.12832 17.3663 6.94786 17.1633C6.82461 17.0245 6.65424 16.9363 6.46973 16.9158L4.35286 16.6796C4.11679 16.2291 3.92132 15.7585 3.76879 15.2733L5.09911 13.6102C5.21527 13.4651 5.2734 13.282 5.26223 13.0965C5.24629 12.8254 5.24629 12.5537 5.26223 12.2827C5.2734 12.0972 5.21527 11.9141 5.09911 11.769L3.76879 10.103C3.92144 9.6179 4.1169 9.1473 4.35286 8.69677L6.46879 8.45677C6.65331 8.43629 6.82367 8.3481 6.94692 8.20927C7.12738 8.00631 7.31958 7.81411 7.52254 7.63365C7.66193 7.51032 7.75048 7.33957 7.77098 7.15458L8.00629 5.03865C8.45677 4.80258 8.92738 4.60712 9.41254 4.45458L11.0757 5.7849C11.2208 5.90106 11.4039 5.95919 11.5894 5.94802C11.8604 5.93208 12.1322 5.93208 12.4032 5.94802C12.5887 5.95919 12.7718 5.90106 12.9169 5.7849L14.5829 4.45458C15.068 4.60723 15.5386 4.80269 15.9891 5.03865L16.2291 7.15458C16.2496 7.3391 16.3378 7.50946 16.4766 7.63271C16.6796 7.81317 16.8718 8.00537 17.0522 8.20833C17.1755 8.34717 17.3458 8.43535 17.5304 8.45583L19.6472 8.69115C19.8833 9.14162 20.0788 9.61223 20.2313 10.0974L18.901 11.7605C18.7837 11.9069 18.7255 12.0918 18.7379 12.279H18.7407Z" fill="#B9B9C7"/>
</svg>
