<svg width="24" height="25" viewBox="0 0 24 25" fill="none" xmlns="http://www.w3.org/2000/svg">
<path d="M15.25 7.39062C15.25 9.18555 13.7949 10.6406 12 10.6406V12.1406C14.6234 12.1406 16.75 10.014 16.75 7.39062H15.25ZM12 10.6406C10.2051 10.6406 8.75 9.18555 8.75 7.39062H7.25C7.25 10.014 9.37665 12.1406 12 12.1406V10.6406ZM8.75 7.39062C8.75 5.5957 10.2051 4.14062 12 4.14062V2.64062C9.37665 2.64062 7.25 4.76727 7.25 7.39062H8.75ZM12 4.14062C13.7949 4.14062 15.25 5.5957 15.25 7.39062H16.75C16.75 4.76727 14.6234 2.64062 12 2.64062V4.14062ZM18.25 17.8906C18.25 18.42 17.8014 19.1012 16.6143 19.6947C15.4722 20.2658 13.8418 20.6406 12 20.6406V22.1406C14.0242 22.1406 15.8938 21.732 17.2852 21.0363C18.6316 20.3631 19.75 19.2942 19.75 17.8906H18.25ZM12 20.6406C10.1582 20.6406 8.52782 20.2658 7.38566 19.6947C6.19864 19.1012 5.75 18.42 5.75 17.8906H4.25C4.25 19.2942 5.36836 20.3631 6.71484 21.0363C8.10618 21.732 9.97582 22.1406 12 22.1406V20.6406ZM5.75 17.8906C5.75 17.3612 6.19864 16.6801 7.38566 16.0866C8.52782 15.5155 10.1582 15.1406 12 15.1406V13.6406C9.97582 13.6406 8.10618 14.0493 6.71484 14.7449C5.36836 15.4182 4.25 16.487 4.25 17.8906H5.75ZM12 15.1406C13.8418 15.1406 15.4722 15.5155 16.6143 16.0866C17.8014 16.6801 18.25 17.3612 18.25 17.8906H19.75C19.75 16.487 18.6316 15.4182 17.2852 14.7449C15.8938 14.0493 14.0242 13.6406 12 13.6406V15.1406Z" fill="url(#paint0_linear_72_40411)"/>
<defs>
<linearGradient id="paint0_linear_72_40411" x1="12" y1="3.39062" x2="12" y2="21.3906" gradientUnits="userSpaceOnUse">
<stop stop-color="#1FA7FF"/>
<stop offset="1" stop-color="#826CFF"/>
</linearGradient>
</defs>
</svg>
