<svg width="17" height="18" viewBox="0 0 17 18" fill="none" xmlns="http://www.w3.org/2000/svg">
<g clip-path="url(#clip0_70_6494)">
<path d="M14.0117 7.6919H10.3594V4.5044H9.16406C9.53405 4.01047 9.73285 3.40934 9.73031 2.79221C9.73031 1.87448 9.29604 1.01216 8.59699 0.541836L8.30042 0.342285L8.00388 0.541836C7.30469 1.01222 6.87056 1.87451 6.87056 2.79221C6.86807 3.40935 7.06693 4.01046 7.43697 4.50436H6.10938V7.69186H2.98828C2.47771 7.69244 1.98822 7.89552 1.62719 8.25655C1.26616 8.61758 1.06308 9.10707 1.0625 9.61765V15.592C1.06282 15.8737 1.17486 16.1438 1.37405 16.343C1.57324 16.5422 1.8433 16.6542 2.125 16.6545H14.875C15.1567 16.6542 15.4268 16.5422 15.626 16.343C15.8251 16.1438 15.9372 15.8737 15.9375 15.592V9.61768C15.9369 9.10711 15.7338 8.61761 15.3728 8.25659C15.0118 7.89556 14.5223 7.69248 14.0117 7.6919ZM8.30042 1.6979C8.53251 1.98624 8.66781 2.37744 8.66781 2.79224C8.66781 3.20705 8.53251 3.59828 8.30042 3.88659C8.06836 3.59828 7.93306 3.20705 7.93306 2.79221C7.93306 2.37737 8.06836 1.98624 8.30042 1.6979ZM7.17188 5.5669H9.29688V7.6919H7.17188V5.5669ZM2.125 9.61768C2.12526 9.3888 2.2163 9.16938 2.37814 9.00754C2.53998 8.8457 2.75941 8.75466 2.98828 8.7544H14.0117C14.2406 8.75466 14.46 8.8457 14.6219 9.00754C14.7837 9.16938 14.8747 9.3888 14.875 9.61768V10.6661L14.1578 10.9826C14.0175 11.0443 13.866 11.0762 13.7127 11.0762C13.5595 11.0762 13.4079 11.0443 13.2677 10.9826L12.0195 10.4319L10.7711 10.9826C10.6308 11.0443 10.4793 11.0762 10.326 11.0762C10.1728 11.0762 10.0212 11.0443 9.88092 10.9826L8.63281 10.4318L7.38437 10.9825C7.24411 11.0443 7.09254 11.0761 6.93929 11.0761C6.78604 11.0761 6.63447 11.0443 6.4942 10.9825L5.24609 10.4319L3.99789 10.9825C3.85762 11.0443 3.70605 11.0761 3.5528 11.0761C3.39955 11.0761 3.24798 11.0443 3.10771 10.9825L2.125 10.549V9.61768ZM14.875 15.592H2.125V11.7103L2.67876 11.9546C2.95419 12.0758 3.25182 12.1384 3.55273 12.1384C3.85365 12.1384 4.15128 12.0758 4.42671 11.9546L5.24609 11.5931L6.06551 11.9546C6.34094 12.0758 6.63856 12.1384 6.93947 12.1384C7.24038 12.1384 7.538 12.0758 7.81343 11.9546L8.63281 11.5931L9.45217 11.9546C9.72758 12.0758 10.0252 12.1384 10.3261 12.1384C10.627 12.1384 10.9246 12.0758 11.2 11.9546L12.0195 11.5931L12.8389 11.9547C13.1143 12.0759 13.4119 12.1384 13.7128 12.1384C14.0137 12.1384 14.3113 12.0759 14.5868 11.9547L14.8754 11.8273L14.8757 15.592H14.875Z" fill="url(#paint0_linear_70_6494)"/>
</g>
<defs>
<linearGradient id="paint0_linear_70_6494" x1="8.5" y1="0.342285" x2="8.5" y2="16.6545" gradientUnits="userSpaceOnUse">
<stop stop-color="#7F6EFF"/>
<stop offset="1" stop-color="#17ACFE"/>
</linearGradient>
<clipPath id="clip0_70_6494">
<rect width="17" height="17" fill="white" transform="translate(0 0.185791)"/>
</clipPath>
</defs>
</svg>
