<svg width="24" height="25" viewBox="0 0 24 25" fill="none" xmlns="http://www.w3.org/2000/svg">
<path d="M5 14.6858C6.10457 14.6858 7 13.7904 7 12.6858C7 11.5812 6.10457 10.6858 5 10.6858C3.89543 10.6858 3 11.5812 3 12.6858C3 13.7904 3.89543 14.6858 5 14.6858Z" fill="#B2B2B2"/>
<path d="M12 14.6858C13.1046 14.6858 14 13.7904 14 12.6858C14 11.5812 13.1046 10.6858 12 10.6858C10.8954 10.6858 10 11.5812 10 12.6858C10 13.7904 10.8954 14.6858 12 14.6858Z" fill="#B2B2B2"/>
<path d="M19 14.6858C20.1046 14.6858 21 13.7904 21 12.6858C21 11.5812 20.1046 10.6858 19 10.6858C17.8954 10.6858 17 11.5812 17 12.6858C17 13.7904 17.8954 14.6858 19 14.6858Z" fill="#B2B2B2"/>
</svg>
