<svg width="24" height="25" viewBox="0 0 24 25" fill="none" xmlns="http://www.w3.org/2000/svg">
<path d="M9 14.3906C10.6569 14.3906 12 15.7338 12 17.3906C12 17.9429 11.5523 18.3906 11 18.3906H7C6.44772 18.3906 6 17.9429 6 17.3906C6 15.7338 7.34315 14.3906 9 14.3906ZM9 14.3906C10.1046 14.3906 11 13.4952 11 12.3906C11 11.2861 10.1046 10.3906 9 10.3906C7.89543 10.3906 7 11.2861 7 12.3906C7 13.4952 7.89543 14.3906 9 14.3906ZM18 12.3906L15 12.3906M18 16.3906L15 16.3906M5 22.3906H19C20.6569 22.3906 22 21.0475 22 19.3906V9.39062C22 7.73377 20.6569 6.39062 19 6.39062H5C3.34315 6.39062 2 7.73377 2 9.39062V19.3906C2 21.0475 3.34315 22.3906 5 22.3906ZM14 6.39062V4.39062C14 3.28606 13.1046 2.39062 12 2.39062C10.8954 2.39062 10 3.28606 10 4.39062V6.39062H14Z" stroke="url(#paint0_linear_72_40406)" stroke-width="1.5" stroke-linecap="round"/>
<defs>
<linearGradient id="paint0_linear_72_40406" x1="12" y1="2.39062" x2="12" y2="22.3906" gradientUnits="userSpaceOnUse">
<stop stop-color="#1FA7FF"/>
<stop offset="1" stop-color="#826CFF"/>
</linearGradient>
</defs>
</svg>
