<svg width="24" height="24" viewBox="0 0 24 24" fill="none" xmlns="http://www.w3.org/2000/svg">
<path d="M7.91321 4.89915L14.5415 11.6338C14.6869 11.7808 14.7684 11.9791 14.7684 12.1858C14.7684 12.3925 14.6869 12.5909 14.5415 12.7378L7.91465 19.4725C7.76935 19.6204 7.68794 19.8194 7.68794 20.0267C7.68794 20.234 7.76935 20.433 7.91465 20.5808C7.98563 20.6536 8.07046 20.7115 8.16415 20.751C8.25785 20.7905 8.3585 20.8109 8.46018 20.8109C8.56186 20.8109 8.66251 20.7905 8.7562 20.751C8.84989 20.7115 8.93473 20.6536 9.00571 20.5808L15.6326 13.8476C16.068 13.4041 16.312 12.8074 16.312 12.1858C16.312 11.5643 16.068 10.9676 15.6326 10.5241L9.00571 3.79084C8.93471 3.71781 8.84978 3.65976 8.75596 3.62012C8.66213 3.58048 8.56131 3.56006 8.45946 3.56006C8.3576 3.56006 8.25679 3.58048 8.16296 3.62012C8.06914 3.65976 7.98421 3.71781 7.91321 3.79084C7.76791 3.93869 7.6865 4.1377 7.6865 4.34499C7.6865 4.55229 7.76791 4.75129 7.91321 4.89915Z" fill="#202020"/>
</svg>
