<svg width="21" height="20" viewBox="0 0 21 20" fill="none" xmlns="http://www.w3.org/2000/svg">
<path d="M13.3875 5.00008V4.33341C13.3875 3.39999 13.3875 2.93328 13.2059 2.57676C13.0461 2.26316 12.7911 2.00819 12.4775 1.8484C12.121 1.66675 11.6543 1.66675 10.7209 1.66675H9.38753C8.45411 1.66675 7.9874 1.66675 7.63088 1.8484C7.31728 2.00819 7.06231 2.26316 6.90252 2.57676C6.72087 2.93328 6.72087 3.39999 6.72087 4.33341V5.00008M8.38753 9.58341V13.7501M11.7209 9.58341V13.7501M2.5542 5.00008H17.5542M15.8875 5.00008V14.3334C15.8875 15.7335 15.8875 16.4336 15.615 16.9684C15.3754 17.4388 14.9929 17.8212 14.5225 18.0609C13.9877 18.3334 13.2877 18.3334 11.8875 18.3334H8.22087C6.82073 18.3334 6.12067 18.3334 5.58589 18.0609C5.11548 17.8212 4.73303 17.4388 4.49335 16.9684C4.22087 16.4336 4.22087 15.7335 4.22087 14.3334V5.00008" stroke="#202020" stroke-width="1.66667" stroke-linecap="round" stroke-linejoin="round"/>
</svg>
