<svg width="24" height="25" viewBox="0 0 24 25" fill="none" xmlns="http://www.w3.org/2000/svg">
<path d="M19.5958 5.29581C19.3091 5.00885 18.9687 4.7812 18.5939 4.62589C18.2192 4.47057 17.8176 4.39062 17.4119 4.39062C17.0063 4.39062 16.6047 4.47057 16.2299 4.62589C15.8552 4.7812 15.5148 5.00885 15.2281 5.29581L5.95307 14.5708C5.5128 15.0118 5.19871 15.5627 5.04348 16.1662L4.01842 20.1556C3.993 20.2549 3.99391 20.3591 4.02106 20.4579C4.04821 20.5567 4.10066 20.6467 4.17323 20.719C4.24581 20.7914 4.33599 20.8435 4.43488 20.8704C4.53378 20.8972 4.63796 20.8978 4.73714 20.872L8.72544 19.8481C9.32915 19.6934 9.88015 19.3793 10.3208 18.9385L19.5958 9.66351C19.8828 9.37682 20.1104 9.03639 20.2657 8.66167C20.421 8.28695 20.501 7.88529 20.501 7.47966C20.501 7.07403 20.421 6.67237 20.2657 6.29765C20.1104 5.92294 19.8828 5.5825 19.5958 5.29581ZM16.0611 6.12882C16.4194 5.77056 16.9053 5.56928 17.4119 5.56928C17.9186 5.56928 18.4045 5.77056 18.7628 6.12882C19.121 6.48709 19.3223 6.973 19.3223 7.47966C19.3223 7.98632 19.121 8.47224 18.7628 8.8305L17.8449 9.74834L15.1433 7.04666L16.0611 6.12882ZM14.3103 7.87967L17.0119 10.5813L9.48776 18.1055C9.19614 18.3969 8.8315 18.6045 8.43206 18.7064L5.40755 19.4841L6.18518 16.4595C6.2866 16.0599 6.49423 15.6951 6.78608 15.4038L14.3103 7.87967Z" fill="#B2B2B2"/>
</svg>
